<?xml version="1.0" standalone="no"?>
<!DOCTYPE svg PUBLIC "-//W3C//DTD SVG 20010904//EN"
 "http://www.w3.org/TR/2001/REC-SVG-20010904/DTD/svg10.dtd">
<svg version="1.0" xmlns="http://www.w3.org/2000/svg"
 width="270.000000pt" height="270.000000pt" viewBox="0 0 270.000000 270.000000"
 preserveAspectRatio="xMidYMid meet">
<metadata>
Created by potrace 1.14, written by Peter Selinger 2001-2017
</metadata>
<g transform="translate(0.000000,270.000000) scale(0.100000,-0.100000)"
fill="#000000" stroke="none">
<path d="M1313 2293 c-68 -156 -65 -569 6 -883 18 -80 15 -90 -22 -90 -36 0
-91 -23 -118 -49 -28 -28 -59 -96 -84 -186 -9 -33 -23 -82 -31 -109 -8 -26
-14 -60 -14 -75 0 -15 -4 -31 -8 -36 -5 -6 -17 -41 -26 -80 -22 -87 -44 -147
-74 -205 -65 -125 -126 -185 -160 -158 -34 26 -45 45 -92 163 -17 42 -59 220
-71 305 -24 158 -42 331 -43 400 -1 69 1 76 22 85 12 5 22 13 22 17 0 5 6 8
14 8 8 0 21 6 28 13 7 6 31 21 53 32 22 11 46 26 53 32 7 7 19 13 27 13 7 0
15 4 17 8 2 4 30 28 63 54 107 82 255 242 255 276 0 22 -29 12 -52 -19 -30
-40 -200 -209 -209 -209 -4 0 -15 -7 -23 -15 -24 -25 -150 -105 -163 -105 -7
0 -13 -4 -13 -10 0 -5 -6 -10 -14 -10 -8 0 -28 -8 -45 -17 -16 -10 -33 -15
-36 -11 -4 3 -9 28 -13 54 -5 35 -12 50 -24 52 -14 3 -17 -2 -13 -25 17 -112
18 -108 -23 -129 -20 -10 -38 -22 -40 -26 -2 -5 -10 -8 -18 -8 -8 0 -14 -4
-14 -8 0 -5 -9 -13 -19 -18 -41 -19 -145 -113 -199 -178 -22 -28 -31 -96 -12
-96 5 0 18 17 29 38 41 81 212 225 283 239 l28 6 0 -131 c0 -130 -14 -219 -46
-289 -8 -17 -14 -36 -14 -42 0 -6 -4 -11 -10 -11 -5 0 -10 -8 -10 -17 -1 -29
-100 -143 -164 -188 -44 -32 -169 -95 -188 -95 -9 0 -19 -4 -22 -9 -3 -4 -24
-11 -46 -15 -40 -6 -57 -26 -22 -26 33 0 231 78 252 100 7 7 42 29 59 37 43
20 181 190 181 223 0 7 6 24 14 38 8 15 20 47 27 72 l13 45 7 -40 c57 -314 91
-442 140 -525 5 -8 12 -21 16 -29 26 -55 100 -74 139 -35 49 49 134 187 134
217 0 8 7 28 15 43 8 16 15 39 15 52 0 12 5 22 10 22 6 0 10 8 10 18 0 9 6 37
15 62 8 25 20 66 27 92 10 40 14 44 24 30 6 -9 15 -31 18 -49 10 -46 51 -86
79 -77 12 4 27 14 34 23 15 20 53 131 53 154 0 9 4 17 8 17 5 0 14 35 21 78
20 135 22 141 37 135 8 -3 14 -11 14 -18 0 -7 11 -35 23 -62 112 -230 103
-218 159 -214 18 1 58 63 58 91 0 10 4 21 9 24 5 4 12 25 16 48 4 23 11 49 16
58 8 17 26 83 38 145 12 56 32 136 42 160 4 11 10 37 14 58 3 20 10 37 15 37
6 0 10 9 10 21 0 26 81 147 134 200 43 44 213 159 233 159 7 0 13 5 13 10 0 6
5 10 11 10 6 0 25 6 42 14 58 25 172 65 202 71 17 4 39 10 50 14 34 14 118 34
160 39 22 2 49 11 60 19 18 14 16 14 -30 8 -27 -3 -63 -10 -80 -15 -16 -4 -64
-16 -105 -25 -77 -17 -159 -41 -195 -55 -11 -4 -40 -15 -65 -25 -41 -16 -60
-25 -123 -58 -33 -18 -108 -69 -136 -92 -39 -33 -91 -84 -91 -90 0 -3 -11 -16
-25 -29 -14 -13 -25 -28 -25 -34 0 -6 -6 -17 -13 -24 -20 -21 -66 -122 -86
-190 -6 -21 -15 -53 -21 -70 -5 -18 -12 -53 -16 -78 -4 -25 -10 -49 -14 -55
-5 -5 -11 -31 -15 -58 -4 -26 -11 -50 -16 -53 -5 -3 -9 -13 -9 -22 0 -9 -12
-47 -26 -84 -29 -76 -53 -98 -79 -72 -16 16 -85 157 -85 174 0 4 -7 21 -15 36
-8 16 -15 38 -15 49 0 12 -5 26 -11 32 -13 13 -7 126 15 288 47 328 37 695
-19 752 -23 23 -59 16 -72 -14z m75 -66 c23 -78 4 -634 -26 -749 -19 -75 -42
25 -63 277 -10 121 -2 372 12 381 5 3 9 17 9 32 0 15 5 44 11 65 14 52 41 50
57 -6z m-74 -1002 c-2 -49 -19 -152 -32 -197 -6 -18 -18 -58 -28 -89 -9 -30
-25 -66 -36 -79 -17 -21 -19 -22 -37 -6 -24 22 -32 58 -38 170 -3 56 -1 92 6
99 6 6 11 21 11 33 0 11 19 42 41 68 37 42 46 47 78 44 35 -3 36 -4 35 -43z"/>
</g>
</svg>
