<svg xmlns="http://www.w3.org/2000/svg" xmlns:xlink="http://www.w3.org/1999/xlink"><symbol id="icon-close" viewBox="0 0 20 20"><g fill="none"><path d="M.293 18.291a1 1 0 101.414 1.414L10 11.413l8.292 8.292a1 1 0 101.414-1.414l-8.292-8.292 8.292-8.292A1 1 0 1018.291.293L9.999 8.585 1.707.293A1 1 0 10.293 1.707L8.585 10 .293 18.291z"/></g></symbol><symbol id="icon-shopping-bag" viewBox="0 0 16 16"><g fill="none">
<path d="M13.4655 13.4905V6.54579H2.53961V13.4905C2.54105 13.8335 2.67678 14.1619 2.91726 14.4044C3.15775 14.6469 3.48352 14.7837 3.82361 14.7852H12.1816C12.5217 14.7837 12.8474 14.6469 13.0879 14.4044C13.3284 14.1619 13.4641 13.8335 13.4655 13.4905ZM14.6693 5.93876V13.4905C14.6678 14.1554 14.4052 14.7925 13.939 15.2626C13.4728 15.7327 12.8409 15.9975 12.1816 15.999H3.82361C3.1643 15.9975 2.53242 15.7327 2.06622 15.2626C1.60001 14.7925 1.33744 14.1554 1.33594 13.4905V5.33204H14.6693V5.93876Z" fill="currentColor"/>
<path d="M10.1269 7.33334L10.127 1.87461C10.126 1.6997 10.0566 1.53224 9.93399 1.40853C9.81135 1.28483 9.6453 1.21485 9.47184 1.21376L6.52296 1.21377C6.34949 1.2149 6.18343 1.28489 6.06077 1.40857C5.9381 1.53226 5.86871 1.6997 5.86759 1.87462L5.86754 7.33334H4.66406L4.66411 1.87462C4.66524 1.37782 4.86142 0.901698 5.20977 0.550391C5.55812 0.199085 6.03029 0.00119346 6.52296 5.08626e-06L9.47184 0C9.96454 0.00110761 10.4367 0.198976 10.7851 0.5503C11.1335 0.901623 11.3296 1.37779 11.3307 1.87461L11.3306 7.33333L10.1269 7.33334Z" fill="currentColor"/>
</g></symbol><symbol id="icon-vk" viewBox="0 0 18 16"><g fill="none">
<path fill-rule="evenodd" clip-rule="evenodd" d="M0.988281 3.43945C1.11842 9.43588 4.24178 13.0395 9.71772 13.0395H10.0281V9.60881C12.0403 9.801 13.5618 11.2136 14.1725 13.0395H17.0157C16.2348 10.3103 14.1825 8.80159 12.9011 8.22502C14.1825 7.5139 15.9845 5.78421 16.4149 3.43945H13.832C13.2714 5.34217 11.6098 7.07186 10.0281 7.23522V3.43945H7.4452V10.0893C5.84347 9.7049 3.82133 7.84068 3.73123 3.43945H0.988281Z" stroke="#1A171B" stroke-width="0.8" stroke-linejoin="round"/>
</g></symbol></svg>